<?xml version="1.0" encoding="UTF-8"?>
<svg xmlns="http://www.w3.org/2000/svg" xmlns:xlink="http://www.w3.org/1999/xlink" xmlns:svgjs="http://svgjs.com/svgjs" version="1.1" width="512" height="512" x="0" y="0" viewBox="0 0 512 512" style="enable-background:new 0 0 512 512" xml:space="preserve" class="">
  <g transform="matrix(2.5,0,0,2.5,-384,-649)">
<path xmlns="http://www.w3.org/2000/svg" style="" d="M152.776,396.866v41.439c0,1.639-0.651,3.211-1.81,4.371l-16.499,16.499  c-1.159,1.159-2.731,1.81-4.371,1.81H22.68c-1.639,0-3.212-0.651-4.371-1.81l-16.499-16.5C0.651,441.516,0,439.944,0,438.303  v-41.439h152.776V396.866z" fill="#000000" data-original="#48709b" class=""/>
<path xmlns="http://www.w3.org/2000/svg" style="" d="M152.776,396.866v24.158l-10.644,10.644c-2.512,2.512-5.918,3.923-9.47,3.923H20.114  c-3.552,0-6.958-1.411-9.47-3.923L0,421.023v-24.158L152.776,396.866L152.776,396.866z" fill="#707070" data-original="#304e75" class=""/>
<path xmlns="http://www.w3.org/2000/svg" style="" d="M152.776,292.089v107.427c0,1.638-0.649,3.214-1.813,4.368l-16.493,16.504  c-1.154,1.154-2.73,1.803-4.368,1.803H22.674c-1.638,0-3.214-0.649-4.368-1.803L1.813,403.884C0.649,402.73,0,401.154,0,399.516  V292.089c0-1.638,0.649-3.204,1.813-4.368l16.493-16.493c1.154-1.164,2.73-1.813,4.368-1.813h107.427  c1.638,0,3.214,0.649,4.368,1.813l16.493,16.493C152.127,288.885,152.776,290.451,152.776,292.089z" fill="#ffffff" data-original="#e4eaf6" class=""/>
<path xmlns="http://www.w3.org/2000/svg" style="" d="M152.776,373.493v26.022c0,1.638-0.649,3.214-1.813,4.368l-16.493,16.504  c-1.154,1.154-2.73,1.803-4.368,1.803H22.674c-1.638,0-3.214-0.649-4.368-1.803L1.813,403.884C0.649,402.73,0,401.154,0,399.516  v-26.022l20.109,20.109h112.558L152.776,373.493z" fill="#eeeeee" data-original="#c7cfe2" class=""/>
<path xmlns="http://www.w3.org/2000/svg" style="" d="M332.12,396.866v41.439c0,1.639-0.651,3.212-1.81,4.371l-16.499,16.499  c-1.159,1.159-2.731,1.81-4.371,1.81H202.014c-1.639,0-3.212-0.651-4.371-1.81l-16.499-16.499c-1.159-1.159-1.81-2.731-1.81-4.371  v-41.439H332.12z" fill="#000000" data-original="#48709b" class=""/>
<path xmlns="http://www.w3.org/2000/svg" style="" d="M332.12,396.866v24.158l-10.655,10.648c-2.511,2.509-5.916,3.919-9.466,3.919H199.456  c-3.55,0-6.955-1.41-9.466-3.919l-10.655-10.648v-24.158H332.12z" fill="#707070" data-original="#304e75" class=""/>
<path xmlns="http://www.w3.org/2000/svg" style="" d="M332.12,292.089v107.427c0,1.638-0.659,3.214-1.813,4.368l-16.493,16.504  c-1.164,1.154-2.73,1.803-4.378,1.803H202.018c-1.638,0-3.214-0.649-4.378-1.803l-16.493-16.504  c-1.154-1.154-1.813-2.73-1.813-4.368V292.089c0-1.638,0.659-3.204,1.813-4.368l16.493-16.493c1.164-1.164,2.74-1.813,4.378-1.813  h107.417c1.648,0,3.214,0.649,4.378,1.813l16.493,16.493C331.461,288.885,332.12,290.451,332.12,292.089z" fill="#ffffff" data-original="#e4eaf6" class=""/>
<path xmlns="http://www.w3.org/2000/svg" style="" d="M332.12,373.523v25.991c0,1.638-0.659,3.214-1.813,4.368l-16.493,16.504  c-1.164,1.154-2.73,1.803-4.378,1.803H202.018c-1.638,0-3.214-0.649-4.378-1.803l-16.493-16.504  c-1.154-1.154-1.813-2.73-1.813-4.368v-26.012l0.01-0.01l20.109,20.109H312l20.109-20.109L332.12,373.523z" fill="#eeeeee" data-original="#c7cfe2" class=""/>
<path xmlns="http://www.w3.org/2000/svg" style="" d="M512,396.866v41.439c0,1.639-0.651,3.212-1.81,4.371l-16.499,16.499  c-1.159,1.159-2.731,1.81-4.371,1.81H381.904c-1.639,0-3.211-0.651-4.371-1.81l-16.499-16.499c-1.159-1.159-1.81-2.731-1.81-4.371  v-41.439H512z" fill="#000000" data-original="#48709b" class=""/>
<path xmlns="http://www.w3.org/2000/svg" style="" d="M512,396.866v24.158l-10.644,10.644c-2.512,2.512-5.918,3.923-9.47,3.923H379.338  c-3.552,0-6.958-1.411-9.47-3.923l-10.644-10.644v-24.158H512z" fill="#707070" data-original="#304e75" class=""/>
<path xmlns="http://www.w3.org/2000/svg" style="" d="M512,292.089v107.427c0,1.638-0.649,3.214-1.813,4.368l-16.493,16.504  c-1.154,1.154-2.73,1.803-4.368,1.803H381.898c-1.638,0-3.214-0.649-4.368-1.803l-16.493-16.504  c-1.164-1.154-1.813-2.73-1.813-4.368V292.089c0-1.638,0.649-3.204,1.813-4.368l16.493-16.493c1.154-1.164,2.73-1.813,4.368-1.813  h107.427c1.638,0,3.214,0.649,4.368,1.813l16.493,16.493C511.351,288.885,512,290.451,512,292.089z" fill="#ffffff" data-original="#e4eaf6" class=""/>
<g xmlns="http://www.w3.org/2000/svg">
	<path style="" d="M512,373.493v26.022c0,1.638-0.649,3.214-1.813,4.368l-16.493,16.504   c-1.154,1.154-2.73,1.803-4.368,1.803H381.898c-1.638,0-3.214-0.649-4.368-1.803l-16.493-16.504   c-1.164-1.154-1.813-2.73-1.813-4.368v-26.022l20.109,20.109h112.558L512,373.493z" fill="#eeeeee" data-original="#c7cfe2" class=""/>
	<path style="" d="M122.919,304.596c-4.267,0-7.726-3.459-7.726-7.726v-0.958c0-4.267,3.459-7.726,7.726-7.726   s7.726,3.459,7.726,7.726v0.958C130.645,301.138,127.186,304.596,122.919,304.596z" fill="#eeeeee" data-original="#c7cfe2" class=""/>
	<path style="" d="M303.725,304.596c-4.267,0-7.726-3.459-7.726-7.726v-0.958c0-4.267,3.459-7.726,7.726-7.726   s7.726,3.459,7.726,7.726v0.958C311.452,301.138,307.992,304.596,303.725,304.596z" fill="#eeeeee" data-original="#c7cfe2" class=""/>
	<path style="" d="M484.533,304.596c-4.267,0-7.726-3.459-7.726-7.726v-0.958c0-4.267,3.459-7.726,7.726-7.726   s7.726,3.459,7.726,7.726v0.958C492.259,301.138,488.8,304.596,484.533,304.596z" fill="#eeeeee" data-original="#c7cfe2" class=""/>
</g>
<path xmlns="http://www.w3.org/2000/svg" style="" d="M332.12,178.466v41.439c0,1.639-0.651,3.212-1.81,4.371l-16.499,16.499  c-1.159,1.159-2.731,1.81-4.371,1.81H202.014c-1.639,0-3.212-0.651-4.371-1.81l-16.499-16.499c-1.159-1.159-1.81-2.731-1.81-4.371  v-41.439L332.12,178.466L332.12,178.466z" fill="#000000" data-original="#48709b" class=""/>
<path xmlns="http://www.w3.org/2000/svg" style="" d="M332.12,178.466v24.158l-10.655,10.648c-2.511,2.51-5.916,3.919-9.466,3.919H199.456  c-3.55,0-6.955-1.41-9.466-3.919l-10.655-10.648v-24.158H332.12z" fill="#707070" data-original="#304e75" class=""/>
<path xmlns="http://www.w3.org/2000/svg" style="" d="M332.12,73.69v107.427c0,1.638-0.659,3.214-1.813,4.368l-16.493,16.504  c-1.164,1.154-2.73,1.803-4.378,1.803H202.018c-1.638,0-3.214-0.649-4.378-1.803l-16.493-16.504  c-1.154-1.154-1.813-2.73-1.813-4.368V73.69c0-1.638,0.659-3.204,1.813-4.368l16.493-16.493c1.164-1.164,2.74-1.813,4.378-1.813  h107.417c1.648,0,3.214,0.649,4.378,1.813l16.493,16.493C331.461,70.486,332.12,72.052,332.12,73.69z" fill="#ffffff" data-original="#e4eaf6" class=""/>
<g xmlns="http://www.w3.org/2000/svg">
	<path style="" d="M332.12,155.126v25.991c0,1.638-0.659,3.214-1.813,4.368l-16.493,16.504   c-1.164,1.154-2.73,1.803-4.378,1.803H202.018c-1.638,0-3.214-0.649-4.378-1.803l-16.493-16.504   c-1.154-1.154-1.813-2.73-1.813-4.368v-26.012l0.01-0.01l20.109,20.109H312l20.109-20.109L332.12,155.126z" fill="#eeeeee" data-original="#c7cfe2" class=""/>
	<path style="" d="M303.725,86.199c-4.267,0-7.726-3.459-7.726-7.726v-0.958c0-4.267,3.459-7.726,7.726-7.726   s7.726,3.459,7.726,7.726v0.958C311.452,82.739,307.992,86.199,303.725,86.199z" fill="#eeeeee" data-original="#c7cfe2" class=""/>
</g>
<g xmlns="http://www.w3.org/2000/svg">
	<path style="" d="M258.659,358.21l15.951-26.907c1.221-2.06-0.264-4.667-2.659-4.667h-31.903   c-2.395,0-3.88,2.606-2.658,4.667l15.951,26.907C254.539,360.229,257.461,360.229,258.659,358.21z" fill="#000000" data-original="#48709b" class=""/>
	<path style="" d="M253.341,114.128l-15.951,26.907c-1.221,2.06,0.264,4.667,2.658,4.667h31.903   c2.395,0,3.88-2.606,2.658-4.667l-15.951-26.907C257.461,112.108,254.539,112.108,253.341,114.128z" fill="#000000" data-original="#48709b" class=""/>
	<path style="" d="M449.157,342.007l-26.907-15.951c-2.06-1.221-4.667,0.264-4.667,2.658v31.903   c0,2.395,2.606,3.88,4.667,2.658l26.907-15.951C451.177,346.127,451.177,343.204,449.157,342.007z" fill="#000000" data-original="#48709b" class=""/>
	<path style="" d="M62.844,347.324l26.907,15.951c2.06,1.221,4.667-0.264,4.667-2.659v-31.903   c0-2.395-2.606-3.88-4.667-2.658l-26.907,15.951C60.825,343.204,60.825,346.127,62.844,347.324z" fill="#000000" data-original="#48709b" class=""/>
</g>















</g>
</svg>
