<?xml version="1.0"?>
<svg xmlns="http://www.w3.org/2000/svg" xmlns:xlink="http://www.w3.org/1999/xlink" xmlns:svgjs="http://svgjs.com/svgjs" version="1.1" width="512" height="512" x="0" y="0" viewBox="0 0 512 512" style="enable-background:new 0 0 512 512" xml:space="preserve" class=""><rect width="512" height="512" rx="20" ry="20" fill="#111212" shape="rounded" transform="matrix(0.4,0,0,0.4,153.6,153.6)"/><g transform="matrix(0.9000000000000001,0,0,0.9000000000000001,25.599999999999966,30.599999999999966)">
<path xmlns="http://www.w3.org/2000/svg" style="" d="M117.333,0h277.333C459.468,0,512,52.532,512,117.333v277.333C512,459.468,459.468,512,394.667,512  H117.333C52.532,512,0,459.468,0,394.667V117.333C0,52.532,52.532,0,117.333,0z" fill="#ffffff" data-original="#cfd8dc" class=""/>
<g xmlns="http://www.w3.org/2000/svg">
	<path style="" d="M160,149.333h64c5.891,0,10.667,4.776,10.667,10.667v192c0,5.891-4.776,10.667-10.667,10.667h-64   c-5.891,0-10.667-4.776-10.667-10.667V160C149.333,154.109,154.109,149.333,160,149.333z" fill="#000000" data-original="#607d8b" class=""/>
	<path style="" d="M288,149.333h64c5.891,0,10.667,4.776,10.667,10.667v192c0,5.891-4.776,10.667-10.667,10.667h-64   c-5.891,0-10.667-4.776-10.667-10.667V160C277.333,154.109,282.109,149.333,288,149.333z" fill="#000000" data-original="#607d8b" class=""/>
</g>
<g xmlns="http://www.w3.org/2000/svg">
</g>
<g xmlns="http://www.w3.org/2000/svg">
</g>
<g xmlns="http://www.w3.org/2000/svg">
</g>
<g xmlns="http://www.w3.org/2000/svg">
</g>
<g xmlns="http://www.w3.org/2000/svg">
</g>
<g xmlns="http://www.w3.org/2000/svg">
</g>
<g xmlns="http://www.w3.org/2000/svg">
</g>
<g xmlns="http://www.w3.org/2000/svg">
</g>
<g xmlns="http://www.w3.org/2000/svg">
</g>
<g xmlns="http://www.w3.org/2000/svg">
</g>
<g xmlns="http://www.w3.org/2000/svg">
</g>
<g xmlns="http://www.w3.org/2000/svg">
</g>
<g xmlns="http://www.w3.org/2000/svg">
</g>
<g xmlns="http://www.w3.org/2000/svg">
</g>
<g xmlns="http://www.w3.org/2000/svg">
</g>
</g></svg>
